<?xml version="1.0" standalone="no"?>
<!DOCTYPE svg PUBLIC "-//W3C//DTD SVG 20010904//EN"
 "http://www.w3.org/TR/2001/REC-SVG-20010904/DTD/svg10.dtd">
<svg version="1.0" xmlns="http://www.w3.org/2000/svg"
 width="500.000000pt" height="178.000000pt" viewBox="0 0 500.000000 178.000000"
 preserveAspectRatio="xMidYMid meet">

<g transform="translate(0.000000,178.000000) scale(0.100000,-0.100000)"
fill="#000000" stroke="none">
<path d="M2070 1777 c-3 -4 -87 -7 -185 -8 -474 -6 -1638 -79 -1750 -110 -51
-14 -110 -73 -124 -124 -15 -53 -15 -1234 -1 -1287 13 -44 51 -93 90 -113 42
-21 130 -32 500 -60 710 -53 1173 -70 1905 -70 625 0 956 10 1545 45 326 20
786 60 821 71 50 17 94 53 113 93 15 32 16 96 14 689 l-3 654 -27 35 c-34 45
-82 68 -167 79 -159 21 -919 72 -1261 84 -91 4 -190 8 -220 11 -91 7 -1245 17
-1250 11z m1135 -37 c502 -16 1024 -47 1465 -86 195 -17 248 -33 281 -88 18
-30 19 -60 19 -676 0 -630 -1 -646 -20 -678 -33 -53 -85 -70 -271 -87 -1075
-97 -2322 -121 -3389 -65 -293 16 -767 48 -960 65 -181 17 -235 34 -274 88
-21 28 -21 39 -21 677 0 638 0 649 21 677 39 55 93 72 279 88 402 35 1015 71
1425 84 361 12 1100 12 1445 1z"/>
<path d="M1645 1699 c-540 -20 -1374 -77 -1477 -100 -32 -7 -56 -21 -73 -41
l-25 -30 0 -640 0 -640 28 -28 c39 -38 75 -46 297 -64 763 -63 1322 -86 2105
-86 714 0 1110 14 1780 61 585 41 618 47 646 114 21 51 21 1239 0 1290 -27 64
-52 69 -516 104 -310 24 -719 47 -1085 61 -293 11 -1375 11 -1680 -1z m26
-330 c14 -7 19 -21 19 -55 0 -40 -2 -45 -17 -38 -41 17 -94 16 -115 -2 -60
-55 -47 -111 52 -220 98 -106 114 -140 114 -224 0 -78 -22 -130 -72 -168 -30
-23 -45 -27 -96 -27 -88 1 -106 14 -106 75 0 28 2 50 4 50 2 0 17 -7 32 -15
67 -35 127 -9 139 59 11 55 -11 100 -89 183 -78 84 -100 117 -110 174 -9 52
12 136 43 170 47 53 142 71 202 38z m-1058 -35 c4 -23 23 -140 41 -260 19
-124 36 -208 39 -194 3 14 23 131 44 260 l38 235 48 3 c26 2 47 0 47 -3 0 -4
-32 -171 -72 -371 l-71 -365 -41 3 -40 3 -67 345 c-37 190 -68 355 -68 368 -1
21 3 23 46 20 47 -3 48 -4 56 -44z m552 24 c29 -128 145 -685 145 -699 0 -16
-8 -19 -45 -19 -50 0 -48 -2 -65 83 l-11 57 -70 0 c-47 0 -71 -4 -74 -12 -2
-7 -9 -39 -15 -70 l-11 -58 -50 0 c-43 0 -50 2 -45 18 3 9 37 166 76 347 39
182 75 340 80 353 7 17 18 22 45 22 28 0 36 -4 40 -22z m981 -318 c39 -184 74
-350 78 -367 l8 -33 -51 0 c-56 0 -51 -6 -68 90 l-9 45 -71 3 -71 3 -12 -58
c-6 -32 -13 -64 -15 -70 -6 -18 -95 -17 -95 1 0 19 150 708 157 719 2 4 21 7
41 5 l36 -3 72 -335z m704 315 c51 -30 74 -84 74 -174 0 -86 -19 -135 -59
-153 l-25 -11 34 -23 c44 -30 61 -74 60 -159 0 -82 -22 -135 -68 -168 -26 -18
-47 -22 -133 -25 l-103 -4 0 364 c0 201 3 368 8 372 4 5 46 6 93 4 61 -3 95
-10 119 -23z m445 3 c3 -13 37 -171 75 -353 39 -181 73 -338 76 -347 5 -16 -2
-18 -46 -18 -56 0 -53 -3 -70 83 l-11 57 -70 0 c-47 0 -71 -4 -74 -12 -2 -7
-9 -39 -15 -70 l-11 -58 -50 0 c-43 0 -50 2 -45 18 3 9 37 166 76 347 39 182
75 340 80 353 7 17 18 22 45 22 28 0 36 -4 40 -22z m389 -20 c20 -55 120 -362
132 -407 6 -22 8 51 5 208 l-3 241 51 0 51 0 0 -370 0 -370 -48 0 -47 0 -60
178 c-32 97 -69 213 -81 257 l-23 80 5 -90 c2 -49 6 -165 9 -257 l5 -168 -50
0 -50 0 0 370 0 370 44 0 c43 0 45 -1 60 -42z m605 33 c57 -11 90 -37 123 -96
44 -82 61 -264 37 -418 -25 -162 -94 -217 -271 -217 l-78 0 0 363 c0 200 3
367 7 370 9 10 129 8 182 -2z m-1021 -851 c-13 -20 -28 -27 -28 -12 0 10 22
32 32 32 5 0 3 -9 -4 -20z m-1398 0 c0 -5 -4 -10 -10 -10 -5 0 -10 5 -10 10 0
6 5 10 10 10 6 0 10 -4 10 -10z m30 0 c0 -5 -4 -10 -10 -10 -5 0 -10 5 -10 10
0 6 5 10 10 10 6 0 10 -4 10 -10z m-241 -57 l0 -28 -16 23 c-25 35 -43 28 -43
-18 0 -44 6 -49 26 -22 12 15 13 13 14 -22 0 -38 0 -39 -20 -21 -20 18 -20 17
-20 -33 0 -43 -3 -52 -17 -52 -16 0 -18 11 -18 100 l0 100 48 0 c45 0 47 -1
46 -27z m105 11 c20 -19 20 -35 2 -59 -11 -16 -11 -23 -1 -40 7 -11 15 -35 19
-53 5 -28 3 -33 -12 -30 -10 2 -18 14 -20 28 -6 52 -13 70 -28 70 -13 0 -15
-10 -12 -50 2 -42 0 -50 -14 -50 -16 0 -18 11 -18 100 l0 100 34 0 c19 0 42
-7 50 -16z m142 -90 c20 -90 20 -94 2 -94 -10 0 -18 7 -18 15 0 7 -5 37 -11
66 -13 60 -23 52 -34 -28 -5 -38 -11 -53 -22 -53 -11 0 -13 4 -6 13 6 6 18 46
27 87 30 130 32 130 62 -6z m82 14 c0 -62 4 -93 11 -92 25 2 29 5 36 27 6 19
8 20 12 4 9 -34 -4 -47 -49 -47 l-43 0 0 100 c0 87 2 100 17 100 14 0 17 -12
16 -92z m162 60 l-1 -33 -15 28 c-16 30 -39 36 -48 12 -3 -9 10 -30 34 -54 41
-40 48 -67 30 -102 -20 -36 -80 -21 -80 20 l0 26 13 -25 c7 -14 21 -25 32 -25
33 0 30 34 -8 74 -41 43 -47 59 -36 89 6 17 16 22 44 22 33 0 35 -2 35 -32z
m95 -40 c31 -80 39 -76 33 13 -2 32 0 59 4 59 12 0 5 -190 -7 -192 -5 -1 -23
31 -40 70 -16 39 -34 74 -39 79 -4 4 -6 -29 -4 -74 2 -46 0 -83 -5 -83 -4 0
-7 45 -6 100 2 86 5 100 19 100 12 0 26 -23 45 -72z m110 -28 c0 -89 -2 -100
-17 -100 -16 0 -18 11 -18 100 0 89 2 100 18 100 15 0 17 -11 17 -100z m76 73
c5 -16 18 -46 29 -68 l19 -40 -2 68 c-1 39 2 67 8 67 6 0 9 -38 7 -100 -2 -55
-7 -100 -12 -100 -4 0 -23 35 -40 78 -18 42 -34 79 -37 82 -3 3 -3 -32 -1 -78
2 -50 -1 -82 -7 -82 -6 0 -10 40 -10 100 0 90 2 100 18 100 11 0 22 -11 28
-27z m129 8 c-11 -21 -14 -129 -4 -155 12 -30 34 -18 34 19 0 24 5 35 15 35 8
0 15 -9 15 -21 0 -61 -58 -82 -85 -29 -8 16 -15 47 -15 70 0 43 23 100 41 100
6 0 6 -6 -1 -19z m60 -13 c0 -17 -1 -29 -3 -27 -2 2 -11 16 -20 32 -17 26 -17
27 3 27 16 0 20 -7 20 -32z m109 0 l-1 -33 -10 28 c-6 16 -17 27 -29 27 -31 0
-23 -37 16 -71 27 -24 35 -39 35 -64 0 -40 -17 -55 -58 -52 -29 2 -32 5 -32
37 l1 35 14 -33 c18 -40 48 -41 53 -1 2 20 -5 32 -32 53 -56 43 -47 106 16
106 25 0 28 -3 27 -32z m116 -72 c21 -92 21 -96 4 -96 -11 0 -19 7 -19 15 0 7
-5 37 -11 66 -13 60 -23 52 -34 -28 -5 -36 -11 -53 -21 -53 -11 0 -12 5 -6 18
5 9 17 49 26 87 24 93 26 99 32 92 3 -3 16 -49 29 -101z m133 92 c16 -16 15
-65 0 -71 -10 -3 -10 -7 -2 -18 6 -8 14 -26 18 -41 3 -14 9 -34 12 -43 5 -13
2 -16 -12 -13 -12 2 -22 17 -29 47 -16 66 -38 67 -34 2 4 -46 2 -51 -16 -51
-19 0 -20 7 -20 100 l0 100 36 0 c19 0 40 -5 47 -12z m107 -45 c9 -32 17 -62
19 -68 3 -10 36 94 36 114 0 6 9 11 20 11 19 0 20 -7 20 -100 0 -89 -2 -100
-17 -100 -16 0 -18 10 -16 82 l2 83 -19 -60 c-11 -33 -20 -68 -20 -77 0 -9 -4
-19 -9 -22 -5 -3 -17 27 -26 67 -10 39 -21 77 -25 82 -19 27 -19 45 0 45 14 0
22 -13 35 -57z m214 30 l0 -28 -16 23 c-25 35 -43 28 -43 -18 0 -44 6 -49 26
-22 12 15 13 13 14 -22 0 -38 0 -39 -20 -21 -20 18 -20 17 -20 -29 0 -40 3
-47 17 -44 10 2 23 14 30 28 l13 25 0 -32 c0 -33 -1 -33 -47 -33 l-48 0 0 100
0 100 48 0 c45 0 47 -1 46 -27z m82 -20 c12 -27 25 -59 30 -72 15 -37 18 -22
10 52 -5 47 -4 67 4 67 7 0 13 -19 14 -42 2 -58 -9 -158 -18 -158 -4 0 -20 30
-35 68 -42 106 -47 108 -44 15 2 -51 -1 -83 -7 -83 -6 0 -10 40 -10 100 0 89
2 100 18 100 12 0 25 -16 38 -47z m-334 -152 c-13 -5 -13 -1 -8 69 l5 65 6
-65 c3 -36 1 -67 -3 -69z m-1622 99 c-4 -6 -162 -10 -441 -10 -283 0 -434 3
-434 10 0 7 154 10 441 10 291 0 438 -3 434 -10z m3035 0 c0 -7 -153 -10 -440
-10 -287 0 -440 3 -440 10 0 7 153 10 440 10 287 0 440 -3 440 -10z"/>
<path d="M1111 1159 c-1 -34 -36 -245 -47 -281 -5 -16 2 -18 50 -18 31 0 56 3
56 8 0 4 -9 70 -21 147 -23 153 -37 205 -38 144z"/>
<path d="M2027 1160 c-28 -154 -47 -272 -47 -285 0 -11 11 -15 48 -15 27 0 51
2 54 5 3 4 1 25 -4 48 -5 23 -18 96 -27 162 -15 96 -20 113 -24 85z"/>
<path d="M2730 1170 l0 -120 28 6 c39 10 51 21 63 67 22 83 -11 167 -66 167
l-25 0 0 -120z"/>
<path d="M2730 850 l0 -120 25 0 c14 0 37 12 52 26 23 23 25 31 21 101 -3 64
-7 78 -27 94 -13 10 -34 19 -47 19 -24 0 -24 0 -24 -120z"/>
<path d="M3240 1152 c0 -28 -36 -240 -46 -274 -5 -16 2 -18 50 -18 38 0 56 4
56 13 0 6 -9 64 -20 127 -11 63 -20 130 -20 148 0 17 -4 32 -10 32 -5 0 -10
-13 -10 -28z"/>
<path d="M4200 1010 l0 -283 36 6 c90 15 114 71 114 263 0 202 -29 277 -112
291 l-38 6 0 -283z"/>
<path d="M1710 440 c0 -42 9 -50 30 -25 15 19 5 65 -15 65 -11 0 -15 -11 -15
-40z"/>
<path d="M2930 440 c0 -29 4 -40 13 -37 6 2 12 19 12 37 0 18 -6 35 -12 38 -9
2 -13 -9 -13 -38z"/>
</g>
</svg>
